<?xml version="1.0" encoding="utf-8"?>
<!-- Generator: Adobe Illustrator 21.0.0, SVG Export Plug-In . SVG Version: 6.00 Build 0)  -->
<svg version="1.0" id="Слой_1" xmlns="http://www.w3.org/2000/svg" xmlns:xlink="http://www.w3.org/1999/xlink" x="0px" y="0px"
	 viewBox="0 0 106 53.7" style="enable-background:new 0 0 106 53.7;" xml:space="preserve">
<style type="text/css">
	.st0{fill:#FF8000;}
	.st1{fill:#FFFFFF;}
</style>
<g>
	<g>
		<circle class="st0" cx="78.8" cy="26.8" r="23.4"/>
	</g>
	<path class="st0" d="M6,26.6v-0.7h8.7c0-0.6-0.2-1.2-0.5-1.7c-0.3-0.5-0.7-1-1.3-1.4c-0.5-0.4-1.1-0.7-1.8-0.9
		c-0.7-0.2-1.5-0.3-2.3-0.3c-0.8,0-1.6,0.1-2.4,0.2c-0.8,0.2-1.6,0.4-2.5,0.8v-0.9c0.8-0.3,1.7-0.5,2.5-0.7c0.8-0.1,1.6-0.2,2.3-0.2
		c0.6,0,1.2,0.1,1.8,0.2c0.6,0.1,1.2,0.3,1.7,0.5c0.5,0.2,1,0.5,1.5,0.8c0.4,0.3,0.8,0.7,1.2,1.1c0.3,0.4,0.6,0.8,0.8,1.3
		c0.2,0.5,0.3,1,0.3,1.5c0,0.8-0.2,1.5-0.6,2.1c-0.4,0.7-0.9,1.2-1.5,1.7c-0.6,0.5-1.4,0.8-2.3,1.1c-0.9,0.3-1.8,0.4-2.9,0.4
		c-0.8,0-1.6-0.1-2.4-0.2c-0.8-0.2-1.6-0.4-2.4-0.7v-0.8c0.5,0.2,0.9,0.4,1.3,0.5c0.4,0.1,0.8,0.2,1.2,0.3c0.4,0.1,0.8,0.2,1.2,0.2
		c0.4,0,0.8,0.1,1.1,0.1c0.8,0,1.6-0.1,2.3-0.3c0.7-0.2,1.3-0.5,1.9-0.9c0.5-0.4,1-0.8,1.3-1.3c0.3-0.5,0.5-1.1,0.6-1.7H6z"/>
	<path class="st0" d="M29.6,30.6c-0.8,0.3-1.6,0.6-2.4,0.7c-0.8,0.2-1.6,0.2-2.4,0.2c-1,0-2-0.1-2.9-0.4c-0.9-0.3-1.6-0.6-2.3-1.1
		c-0.6-0.5-1.2-1-1.5-1.7c-0.4-0.7-0.6-1.4-0.6-2.1c0-0.5,0.1-1,0.3-1.5c0.2-0.5,0.4-0.9,0.8-1.3c0.3-0.4,0.7-0.8,1.1-1.1
		c0.4-0.3,0.9-0.6,1.5-0.8c0.5-0.2,1.1-0.4,1.7-0.5c0.6-0.1,1.2-0.2,1.8-0.2c0.8,0,1.5,0.1,2.3,0.2c0.8,0.1,1.6,0.4,2.4,0.7v0.9
		c-0.9-0.3-1.7-0.6-2.5-0.8c-0.8-0.2-1.6-0.2-2.4-0.2c-0.8,0-1.6,0.1-2.4,0.4c-0.7,0.2-1.4,0.6-1.9,1c-0.5,0.4-0.9,0.9-1.2,1.5
		c-0.3,0.6-0.5,1.2-0.5,1.8c0,0.7,0.1,1.3,0.5,1.9c0.3,0.6,0.7,1,1.3,1.5c0.5,0.4,1.2,0.7,1.9,1c0.7,0.2,1.6,0.3,2.4,0.3
		c0.4,0,0.8,0,1.1-0.1c0.4,0,0.8-0.1,1.2-0.2c0.4-0.1,0.8-0.2,1.2-0.3c0.4-0.1,0.9-0.3,1.3-0.5V30.6z"/>
	<path class="st0" d="M42.3,21v0.7h-5.1v9.8h-1.1v-9.8h-5.1V21H42.3z"/>
	<path class="st0" d="M51.4,21v0.7H45v4.2h6.2v0.7H45v4.3h6.5v0.7H44V21H51.4z"/>
	<path class="st1" d="M66.4,20.9l6.3,10.5h-1.1l-5.5-9.2l-5.4,9.2h-1.1l6.3-10.5H66.4z"/>
	<path class="st1" d="M81.2,20.9l6.3,10.5h-1.1l-2.2-3.6h-6.6l-2.2,3.6h-1.1l6.3-10.5H81.2z M83.9,27.1l-2.9-4.9L78,27.1H83.9z"/>
	<path class="st1" d="M90.2,21h7v0.7h-7v3.9h3c0.8,0,1.5,0.1,2.1,0.2c0.6,0.1,1.1,0.3,1.5,0.6c0.4,0.3,0.7,0.6,0.9,0.9
		c0.2,0.4,0.3,0.8,0.3,1.2c0,0.4-0.1,0.8-0.3,1.2c-0.2,0.4-0.5,0.7-0.9,1c-0.4,0.3-0.9,0.5-1.5,0.6c-0.6,0.2-1.2,0.2-2,0.2h-4V21
		L90.2,21L90.2,21z M90.2,26.2v4.6H93c0.7,0,1.4-0.1,1.8-0.2c0.5-0.1,0.9-0.3,1.1-0.6c0.3-0.2,0.5-0.5,0.6-0.8
		c0.1-0.3,0.2-0.5,0.2-0.8c0-0.3-0.1-0.5-0.2-0.8c-0.1-0.3-0.3-0.5-0.6-0.7c-0.3-0.2-0.7-0.4-1.1-0.5c-0.5-0.1-1.1-0.2-1.8-0.2H90.2
		z"/>
</g>
</svg>
